<?xml version="1.0" encoding="UTF-8"?>
<svg id="Layer_2" data-name="Layer 2" xmlns="http://www.w3.org/2000/svg" viewBox="0 0 477.66 143.95">
  <defs>
    <style>
      .cls-1 {
        fill: #07090a;
        stroke-width: 0px;
      }
    </style>
  </defs>
  <g id="Layer_1-2" data-name="Layer 1">
    <path class="cls-1" d="M403.28,0c-26.3,0-45.5,6.58-57.58,19.73V6.93c0-1.95-.98-2.93-2.93-2.93h-34.66c-1.96,0-2.93.98-2.93,2.93v14.89c-.72-.66-1.45-1.32-2.21-1.96C287.24,6.62,265.25,0,236.99,0c-19.31,0-35.65,3-49.05,8.95l.64-1.22c.53-.89.49-1.77-.13-2.67-.62-.89-1.47-1.33-2.53-1.33h-41.85c-1.6,0-2.93,1.07-4,3.2l-43.99,93.3h-1.33L48.89,6.66c-1.07-1.95-2.4-2.93-4-2.93H2.77c-.89,0-1.64.4-2.27,1.2-.62.8-.67,1.65-.13,2.53l67.45,129.83c.89,1.96,2.13,2.93,3.73,2.93h45.59c1.42,0,2.67-.97,3.73-2.93l27.15-51.95c2.64,15.49,9.98,28.42,22.06,38.76,15.46,13.24,37.76,19.86,66.91,19.86,27.55,0,49.36-6.75,65.45-20.26.94-.79,1.86-1.6,2.74-2.42v16.28c0,1.96.97,2.93,2.93,2.93h35.19c1.95,0,2.93-.97,2.93-2.93v-49.58c0-17.24,4.35-29.9,13.06-37.99,8.71-8.08,20.79-12.13,36.25-12.13,25.95,0,38.92,11.55,38.92,34.66v1.6c0,1.96.97,2.93,2.93,2.93h37.32c1.95,0,2.93-.97,2.93-2.93v-6.4c0-45.14-24.79-67.71-74.38-67.71ZM270.84,97.04c-8.71,6.4-19.99,9.6-33.86,9.6s-25.68-3.15-34.39-9.46c-8.71-6.31-13.06-14.8-13.06-25.46s4.35-18.88,13.06-25.19c8.71-6.31,20.17-9.46,34.39-9.46s25.15,3.16,33.86,9.46c8.71,6.31,13.06,14.71,13.06,25.19s-4.36,18.93-13.06,25.33Z"/>
  </g>
</svg>